<mxfile host="app.diagrams.net" modified="2024-06-26T07:48:13.027Z" agent="Mozilla/5.0 (Macintosh; Intel Mac OS X 10.15; rv:127.0) Gecko/20100101 Firefox/127.0" version="24.6.3" etag="RTutbAzglZYvx69RxZ-W" type="github">
  <diagram name="Page-1" id="pBJSGR551uP_3QfokQdc">
    <mxGraphModel>
      <root>
        <mxCell id="0" />
        <mxCell id="1" parent="0" />
      </root>
    </mxGraphModel>
  </diagram>
</mxfile>
